<svg width="48" height="48" viewBox="0 0 48 48" fill="none" xmlns="http://www.w3.org/2000/svg" xmlns:xlink="http://www.w3.org/1999/xlink">
<line x1="2" y1="22" x2="46" y2="22" stroke="#17183B" stroke-width="2" stroke-miterlimit="3.999327" stroke-linecap="round" stroke-linejoin="round"/>
<path d="M10.586,35.415C11.367,36.196 12.633,36.196 13.414,35.415C14.195,34.634 14.195,33.367 13.414,32.586L10.586,35.415ZM2,24L0.586,22.586C-0.195,23.367 -0.195,24.634 0.586,25.415L2,24ZM13.414,15.415C14.195,14.634 14.195,13.367 13.414,12.586C12.633,11.805 11.367,11.805 10.586,12.586L13.414,15.415ZM13.414,32.586L3.414,22.586L0.586,25.415L10.586,35.415L13.414,32.586ZM3.414,25.415L13.414,15.415L10.586,12.586L0.586,22.586L3.414,25.415Z" fill="#17183B"/>
</svg>
