<svg width="40" height="40" viewBox="0 0 40 40" fill="none" xmlns="http://www.w3.org/2000/svg" xmlns:xlink="http://www.w3.org/1999/xlink">
<path d="M25,20C25,21.326 24.473,22.598 23.536,23.536C22.598,24.473 21.326,25 20,25C18.674,25 17.402,24.473 16.464,23.536C15.527,22.598 15,21.326 15,20C15,18.674 15.527,17.402 16.464,16.464C17.402,15.527 18.674,15 20,15C21.326,15 22.598,15.527 23.536,16.464C24.473,17.402 25,18.674 25,20L25,20Z" fill="#000000"/>
<path d="M4,20C4,20 10,9 20,9C30,9 36,20 36,20C36,20 30,31 20,31C10,31 4,20 4,20ZM20,27C21.857,27 23.637,26.263 24.95,24.95C26.263,23.637 27,21.857 27,20C27,18.143 26.263,16.363 24.95,15.05C23.637,13.737 21.857,13 20,13C18.143,13 16.363,13.737 15.05,15.05C13.738,16.363 13,18.143 13,20C13,21.857 13.738,23.637 15.05,24.95C16.363,26.263 18.143,27 20,27L20,27Z" fill="#000000"/>
</svg>
