<svg width="48" height="48" viewBox="0 0 48 48" fill="none" xmlns="http://www.w3.org/2000/svg" xmlns:xlink="http://www.w3.org/1999/xlink">
<path d="M30,42L30,46C32.209,46 34,44.209 34,42L30,42ZM30,42L26,42C26,44.209 27.791,46 30,46L30,42ZM30,42L30,38C27.791,38 26,39.791 26,42L30,42ZM30,42L34,42C34,39.791 32.209,38 30,38L30,42Z" transform="rotate(360 30 42)" fill="#17183B"/>
<path d="M8,42L8,46C10.209,46 12,44.209 12,42L8,42ZM8,42L4,42C4,44.209 5.791,46 8,46L8,42ZM8,42L8,38C5.791,38 4,39.791 4,42L8,42ZM8,42L12,42C12,39.791 10.209,38 8,38L8,42Z" transform="rotate(360 8 42)" fill="#17183B"/>
<path d="M2,0C0.895,0 0,0.895 0,2C0,3.105 0.895,4 2,4L2,0ZM10,2L11.961,1.607C11.774,0.673 10.953,0 10,0L10,2ZM15.36,28.78L17.322,28.39L17.321,28.387L15.36,28.78ZM19.36,32L19.36,30C19.347,30 19.334,30 19.322,30L19.36,32ZM38.8,32L38.838,30C38.826,30 38.813,30 38.8,30L38.8,32ZM42.8,28.78L44.762,29.17L44.765,29.155L42.8,28.78ZM46,12L47.965,12.375C48.076,11.789 47.921,11.184 47.541,10.725C47.161,10.266 46.596,10 46,10L46,12ZM12,10C10.895,10 10,10.895 10,12C10,13.105 10.895,14 12,14L12,10ZM2,4L10,4L10,0L2,0L2,4ZM8.039,2.393L13.399,29.173L17.321,28.387L11.961,1.607L8.039,2.393ZM13.398,29.17C13.673,30.551 14.424,31.792 15.521,32.675L18.029,29.559C17.664,29.264 17.413,28.851 17.322,28.39L13.398,29.17ZM15.521,32.675C16.618,33.558 17.99,34.027 19.398,34L19.322,30C18.852,30.009 18.395,29.853 18.029,29.559L15.521,32.675ZM19.36,34L38.8,34L38.8,30L19.36,30L19.36,34ZM38.762,34C40.17,34.027 41.542,33.558 42.639,32.675L40.131,29.559C39.765,29.853 39.308,30.009 38.838,30L38.762,34ZM42.639,32.675C43.736,31.792 44.487,30.551 44.762,29.17L40.838,28.39C40.747,28.851 40.496,29.264 40.131,29.559L42.639,32.675ZM44.765,29.155L47.965,12.375L44.035,11.625L40.835,28.405L44.765,29.155ZM46,10L12,10L12,14L46,14L46,10Z" transform="rotate(360 24 17)" fill="#17183B"/>
</svg>
