<svg width="116" height="112" viewBox="0 0 116 112" fill="none" xmlns="http://www.w3.org/2000/svg" xmlns:xlink="http://www.w3.org/1999/xlink">
<path d="M74.82,1.907C74.251,1.318 73.565,0.846 72.803,0.519C72.04,0.191 71.218,0.015 70.383,0.001C69.549,-0.013 68.72,0.135 67.946,0.436C67.172,0.737 66.469,1.186 65.879,1.755C65.289,2.324 64.824,3.002 64.512,3.748C64.199,4.494 64.046,5.293 64.06,6.098C64.075,6.902 64.258,7.696 64.597,8.431C64.937,9.166 65.427,9.827 66.037,10.376L72.003,16.128L53.857,16.128C52.758,16.128 51.705,16.549 50.928,17.298C50.151,18.047 49.714,19.063 49.714,20.123L49.714,60.069C49.714,61.129 50.151,62.145 50.928,62.894C51.705,63.643 52.758,64.064 53.857,64.064L77.679,64.064L77.679,28.112C77.679,26.788 78.224,25.518 79.195,24.581C80.167,23.645 81.484,23.119 82.857,23.119C84.231,23.119 85.548,23.645 86.519,24.581C87.49,25.518 88.036,26.788 88.036,28.112L88.036,64.064L111.857,64.064C112.956,64.064 114.01,63.643 114.787,62.894C115.564,62.145 116,61.129 116,60.069L116,20.123C116,19.063 115.564,18.047 114.787,17.298C114.01,16.549 112.956,16.128 111.857,16.128L93.711,16.128L99.677,10.376C100.775,9.24 101.372,7.738 101.344,6.185C101.316,4.633 100.663,3.152 99.525,2.054C98.386,0.956 96.85,0.327 95.24,0.3C93.63,0.272 92.072,0.849 90.894,1.907L82.857,9.657L74.82,1.907ZM15.271,56.075L0,56.075L0,88.032L15.146,102.637C18.224,105.605 21.878,107.96 25.9,109.567C29.922,111.173 34.233,112 38.587,112L87,112C90.296,112 93.458,110.737 95.788,108.49C98.119,106.243 99.429,103.194 99.429,100.016C99.429,96.838 98.119,93.789 95.788,91.542C93.458,89.295 90.296,88.032 87,88.032L63.991,88.032C63.129,90.833 61.528,93.37 59.343,95.394C57.159,97.418 54.466,98.86 51.53,99.579C48.593,100.297 45.513,100.268 42.592,99.493C39.671,98.718 37.008,97.224 34.866,95.159L22.852,83.574C22.371,83.11 21.99,82.56 21.729,81.954C21.469,81.348 21.335,80.699 21.335,80.043C21.335,79.387 21.469,78.737 21.729,78.132C21.99,77.526 22.371,76.975 22.852,76.511C23.333,76.048 23.904,75.68 24.532,75.429C25.161,75.178 25.834,75.049 26.514,75.049C27.194,75.049 27.868,75.178 28.496,75.429C29.125,75.68 29.696,76.048 30.177,76.511L42.191,88.096C43.458,89.311 45.152,90.023 46.937,90.09C48.723,90.157 50.469,89.575 51.83,88.46C53.192,87.344 54.069,85.776 54.288,84.066C54.507,82.356 54.051,80.629 53.012,79.228L38.711,65.438C35.633,62.47 31.979,60.115 27.957,58.508C23.935,56.901 19.624,56.075 15.271,56.075Z" clip-rule="evenodd" fill-rule="evenodd" fill="#000000"/>
<path d="M74.82,1.907C74.251,1.318 73.565,0.846 72.803,0.519C72.04,0.191 71.218,0.015 70.383,0.001C69.549,-0.013 68.72,0.135 67.946,0.436C67.172,0.737 66.469,1.186 65.879,1.755C65.289,2.324 64.824,3.002 64.512,3.748C64.199,4.494 64.046,5.293 64.06,6.098C64.075,6.902 64.258,7.696 64.597,8.431C64.937,9.166 65.427,9.827 66.037,10.376L72.003,16.128L53.857,16.128C52.758,16.128 51.705,16.549 50.928,17.298C50.151,18.047 49.714,19.063 49.714,20.123L49.714,60.069C49.714,61.129 50.151,62.145 50.928,62.894C51.705,63.643 52.758,64.064 53.857,64.064L77.679,64.064L77.679,28.112C77.679,26.788 78.224,25.518 79.195,24.581C80.167,23.645 81.484,23.119 82.857,23.119C84.231,23.119 85.548,23.645 86.519,24.581C87.49,25.518 88.036,26.788 88.036,28.112L88.036,64.064L111.857,64.064C112.956,64.064 114.01,63.643 114.787,62.894C115.564,62.145 116,61.129 116,60.069L116,20.123C116,19.063 115.564,18.047 114.787,17.298C114.01,16.549 112.956,16.128 111.857,16.128L93.711,16.128L99.677,10.376C100.775,9.24 101.372,7.738 101.344,6.185C101.316,4.633 100.663,3.152 99.525,2.054C98.386,0.956 96.85,0.327 95.24,0.3C93.63,0.272 92.072,0.849 90.894,1.907L82.857,9.657L74.82,1.907ZM15.271,56.075L0,56.075L0,88.032L15.146,102.637C18.224,105.605 21.878,107.96 25.9,109.567C29.922,111.173 34.233,112 38.587,112L87,112C90.296,112 93.458,110.737 95.788,108.49C98.119,106.243 99.429,103.194 99.429,100.016C99.429,96.838 98.119,93.789 95.788,91.542C93.458,89.295 90.296,88.032 87,88.032L63.991,88.032C63.129,90.833 61.528,93.37 59.343,95.394C57.159,97.418 54.466,98.86 51.53,99.579C48.593,100.297 45.513,100.268 42.592,99.493C39.671,98.718 37.008,97.224 34.866,95.159L22.852,83.574C22.371,83.11 21.99,82.56 21.729,81.954C21.469,81.348 21.335,80.699 21.335,80.043C21.335,79.387 21.469,78.737 21.729,78.132C21.99,77.526 22.371,76.975 22.852,76.511C23.333,76.048 23.904,75.68 24.532,75.429C25.161,75.178 25.834,75.049 26.514,75.049C27.194,75.049 27.868,75.178 28.496,75.429C29.125,75.68 29.696,76.048 30.177,76.511L42.191,88.096C43.458,89.311 45.152,90.023 46.937,90.09C48.723,90.157 50.469,89.575 51.83,88.46C53.192,87.344 54.069,85.776 54.288,84.066C54.507,82.356 54.051,80.629 53.012,79.228L38.711,65.438C35.633,62.47 31.979,60.115 27.957,58.508C23.935,56.901 19.624,56.075 15.271,56.075Z" clip-rule="evenodd" fill-rule="evenodd" stroke="#000000" stroke-width="1" stroke-miterlimit="3.999327"/>
<path d="M74.82,1.907C74.251,1.318 73.565,0.846 72.803,0.519C72.04,0.191 71.218,0.015 70.383,0.001C69.549,-0.013 68.72,0.135 67.946,0.436C67.172,0.737 66.469,1.186 65.879,1.755C65.289,2.324 64.824,3.002 64.512,3.748C64.199,4.494 64.046,5.293 64.06,6.098C64.075,6.902 64.258,7.696 64.597,8.431C64.937,9.166 65.427,9.827 66.037,10.376L72.003,16.128L53.857,16.128C52.758,16.128 51.705,16.549 50.928,17.298C50.151,18.047 49.714,19.063 49.714,20.123L49.714,60.069C49.714,61.129 50.151,62.145 50.928,62.894C51.705,63.643 52.758,64.064 53.857,64.064L77.679,64.064L77.679,28.112C77.679,26.788 78.224,25.518 79.195,24.581C80.167,23.645 81.484,23.119 82.857,23.119C84.231,23.119 85.548,23.645 86.519,24.581C87.49,25.518 88.036,26.788 88.036,28.112L88.036,64.064L111.857,64.064C112.956,64.064 114.01,63.643 114.787,62.894C115.564,62.145 116,61.129 116,60.069L116,20.123C116,19.063 115.564,18.047 114.787,17.298C114.01,16.549 112.956,16.128 111.857,16.128L93.711,16.128L99.677,10.376C100.775,9.24 101.372,7.738 101.344,6.185C101.316,4.633 100.663,3.152 99.525,2.054C98.386,0.956 96.85,0.327 95.24,0.3C93.63,0.272 92.072,0.849 90.894,1.907L82.857,9.657L74.82,1.907ZM15.271,56.075L0,56.075L0,88.032L15.146,102.637C18.224,105.605 21.878,107.96 25.9,109.567C29.922,111.173 34.233,112 38.587,112L87,112C90.296,112 93.458,110.737 95.788,108.49C98.119,106.243 99.429,103.194 99.429,100.016C99.429,96.838 98.119,93.789 95.788,91.542C93.458,89.295 90.296,88.032 87,88.032L63.991,88.032C63.129,90.833 61.528,93.37 59.343,95.394C57.159,97.418 54.466,98.86 51.53,99.579C48.593,100.297 45.513,100.268 42.592,99.493C39.671,98.718 37.008,97.224 34.866,95.159L22.852,83.574C22.371,83.11 21.99,82.56 21.729,81.954C21.469,81.348 21.335,80.699 21.335,80.043C21.335,79.387 21.469,78.737 21.729,78.132C21.99,77.526 22.371,76.975 22.852,76.511C23.333,76.048 23.904,75.68 24.532,75.429C25.161,75.178 25.834,75.049 26.514,75.049C27.194,75.049 27.868,75.178 28.496,75.429C29.125,75.68 29.696,76.048 30.177,76.511L42.191,88.096C43.458,89.311 45.152,90.023 46.937,90.09C48.723,90.157 50.469,89.575 51.83,88.46C53.192,87.344 54.069,85.776 54.288,84.066C54.507,82.356 54.051,80.629 53.012,79.228L38.711,65.438C35.633,62.47 31.979,60.115 27.957,58.508C23.935,56.901 19.624,56.075 15.271,56.075Z" clip-rule="evenodd" fill-rule="evenodd" stroke="#000000" stroke-opacity="0.2" stroke-width="1" stroke-miterlimit="3.999327"/>
</svg>
