<svg width="450" height="450" viewBox="0 0 450 450" fill="none" xmlns="http://www.w3.org/2000/svg" xmlns:xlink="http://www.w3.org/1999/xlink">
<path d="M193.267,264.861L144.606,216.199C140.504,212.097 135.47,210.047 129.504,210.047C123.538,210.047 118.317,212.285 113.843,216.759C109.741,220.861 107.69,226.081 107.69,232.421C107.69,238.759 109.741,243.979 113.843,248.081L177.606,311.845C181.708,315.947 186.928,317.997 193.267,317.997C199.606,317.997 204.827,315.947 208.929,311.845L335.895,184.877C339.997,180.775 342.049,175.741 342.049,169.775C342.049,163.809 339.811,158.589 335.337,154.114C331.235,150.012 326.013,147.962 319.675,147.962C313.335,147.962 308.115,150.012 304.013,154.114L193.267,264.861ZM224.589,448.319C193.64,448.319 164.555,442.443 137.334,430.691C110.114,418.951 86.436,403.015 66.3,382.879C46.164,362.743 30.227,339.065 18.489,311.845C6.736,284.623 0.859,255.539 0.859,224.589C0.859,193.64 6.736,164.555 18.489,137.334C30.227,110.114 46.164,86.436 66.3,66.3C86.436,46.164 110.114,30.22 137.334,18.466C164.555,6.728 193.64,0.859 224.589,0.859C255.539,0.859 284.623,6.728 311.845,18.466C339.065,30.22 362.743,46.164 382.879,66.3C403.015,86.436 418.951,110.114 430.691,137.334C442.443,164.555 448.319,193.64 448.319,224.589C448.319,255.539 442.443,284.623 430.691,311.845C418.951,339.065 403.015,362.743 382.879,382.879C362.743,403.015 339.065,418.951 311.845,430.691C284.623,442.443 255.539,448.319 224.589,448.319Z" fill="#3AA39F"/>
</svg>
