<svg width="44" height="46" viewBox="0 0 44 46" fill="none" xmlns="http://www.w3.org/2000/svg" xmlns:xlink="http://www.w3.org/1999/xlink">
<path d="M15.655,32.761C14.913,32.761 14.297,32.146 14.297,31.403L14.297,23.815L12.993,25.119C12.468,25.644 11.599,25.644 11.074,25.119C10.548,24.594 10.548,23.725 11.074,23.199L14.696,19.577C15.076,19.197 15.673,19.07 16.181,19.288C16.688,19.487 17.014,19.994 17.014,20.537L17.014,31.403C17.014,32.146 16.398,32.761 15.655,32.761Z" fill="#3AA39F"/>
<path d="M19.277,25.517C18.933,25.517 18.589,25.391 18.318,25.119L14.696,21.497C14.17,20.972 14.17,20.103 14.696,19.577C15.221,19.052 16.09,19.052 16.615,19.577L20.237,23.199C20.762,23.725 20.762,24.594 20.237,25.119C19.966,25.391 19.621,25.517 19.277,25.517Z" fill="#3AA39F"/>
<path d="M26.522,41.816L15.656,41.816C5.822,41.816 1.621,37.615 1.621,27.781L1.621,16.915C1.621,7.082 5.822,2.88 15.656,2.88L24.711,2.88C25.453,2.88 26.069,3.496 26.069,4.239C26.069,4.981 25.453,5.597 24.711,5.597L15.656,5.597C7.307,5.597 4.337,8.567 4.337,16.915L4.337,27.781C4.337,36.13 7.307,39.1 15.656,39.1L26.522,39.1C34.87,39.1 37.84,36.13 37.84,27.781L37.84,18.726C37.84,17.984 38.456,17.368 39.198,17.368C39.941,17.368 40.557,17.984 40.557,18.726L40.557,27.781C40.557,37.615 36.355,41.816 26.522,41.816Z" fill="#3AA39F"/>
<path d="M39.198,20.084L31.954,20.084C25.761,20.084 23.352,17.676 23.352,11.482L23.352,4.238C23.352,3.695 23.678,3.188 24.185,2.989C24.692,2.771 25.272,2.898 25.67,3.279L40.158,17.766C40.538,18.147 40.665,18.744 40.448,19.251C40.23,19.758 39.741,20.084 39.198,20.084ZM26.069,7.516L26.069,11.482C26.069,16.155 27.282,17.368 31.954,17.368L35.92,17.368L26.069,7.516Z" fill="#3AA39F"/>
</svg>
